<?xml version="1.0" standalone="no"?>
<!DOCTYPE svg PUBLIC "-//W3C//DTD SVG 20010904//EN"
 "http://www.w3.org/TR/2001/REC-SVG-20010904/DTD/svg10.dtd">
<svg version="1.0" xmlns="http://www.w3.org/2000/svg"
 width="789.000000pt" height="1280.000000pt" viewBox="0 0 789.000000 1280.000000"
 preserveAspectRatio="xMidYMid meet">
<metadata>
Created by potrace 1.15, written by Peter Selinger 2001-2017
</metadata>
<g transform="translate(0.000000,1280.000000) scale(0.100000,-0.100000)"
fill="#000000" stroke="none">
<path d="M3215 12794 c-542 -16 -1205 -43 -1213 -49 -1 -1 -13 -70 -27 -154
-16 -99 -47 -225 -89 -364 -554 -1834 -1004 -4327 -1396 -7737 -66 -575 -121
-1084 -230 -2135 -104 -999 -150 -1415 -186 -1670 -24 -173 -60 -382 -70 -408
-3 -10 26 -16 113 -26 65 -7 572 -66 1128 -131 556 -66 1013 -116 1016 -112 5
5 927 5368 1507 8765 46 271 80 441 84 430 4 -10 433 -2077 954 -4593 520
-2516 946 -4575 947 -4576 1 -1 466 57 1032 127 567 71 1047 128 1068 129 26
0 37 4 37 15 0 8 -4 15 -9 15 -12 0 -32 161 -126 1030 -47 432 -108 981 -136
1220 -480 4180 -1077 7407 -1789 9682 -47 148 -63 219 -79 339 -11 84 -24 156
-28 159 -25 22 -2042 57 -2508 44z"/>
</g>
</svg>
